<svg id="Layer_1" xmlns="http://www.w3.org/2000/svg" viewBox="0 0 16 16"><defs><style>.cls-1{fill:#f4a460;stroke-width:0px;}</style></defs><path class="cls-1" d="M8.78,6.77l-1.32.85.77.55.29.22s.08.09.08.15v.96l.11-.08,1.71-1.11c.06-.04.13-.04.19,0l.09.06v-.35l-.22-.15-1.7-1.1h0Z"/><path class="cls-1" d="M13.36,9.97c-.13-2.86-2.51-5.15-5.37-5.18-3.04-.04-5.52,2.41-5.52,5.45,0,.81.18,1.57.49,2.26.04.09.13.14.23.14h.15v-4.1c0-.06.03-.11.08-.15l.29-.22,2.15-1.52c.07-.05.15-.05.22,0l1.21.85,1.39-.9c.06-.04.13-.04.19,0l1.71,1.11.23.16s.07.08.07.13v.49l1.43.93.23.16s.07.08.07.13v2.92h.03c.1,0,.19-.05.23-.14.35-.76.53-1.62.49-2.53h0Z"/><path class="cls-1" d="M10.51,8.48l-1.7,1.1-.21.15v2.91h3.83v-2.9l-.22-.15-1.7-1.1h0ZM10.47,11.34s-.01.03-.03.03h-.42s-.03-.01-.03-.03v-.42s.01-.03.03-.03h.42s.03.01.03.03v.42ZM10.47,10.77s-.01.03-.03.03h-.42s-.03-.01-.03-.03v-.42s.01-.03.03-.03h.42s.03.01.03.03v.42ZM11.03,11.34s-.01.03-.03.03h-.42s-.03-.01-.03-.03v-.42s.01-.03.03-.03h.42s.03.01.03.03v.42ZM11.03,10.77s-.01.03-.03.03h-.42s-.03-.01-.03-.03v-.42s.01-.03.03-.03h.42s.03.01.03.03v.42Z"/><path class="cls-1" d="M3.82,8.32l-.28.22v4.1h4.87v-4.1l-.29-.22-2.14-1.51s-2.15,1.52-2.15,1.52ZM5.93,10.41s-.01.03-.03.03h-.42s-.03-.01-.03-.03v-.42s.01-.03.03-.03h.42s.03.01.03.03v.42ZM5.93,9.84s-.01.03-.03.03h-.42s-.03-.01-.03-.03v-.42s.01-.03.03-.03h.42s.03.01.03.03v.42ZM6.02,9.43s.01-.03.03-.03h.42s.03.01.03.03v.42s-.01.03-.03.03h-.42s-.03-.01-.03-.03v-.42ZM6.02,9.99s.01-.03.03-.03h.42s.03.01.03.03v.42s-.01.03-.03.03h-.42s-.03-.01-.03-.03v-.42Z"/><path class="cls-1" d="M.57,12.89s-.08-.02-.09-.06c-.02-.05,0-.1.06-.12l1.88-.65s.1,0,.12.06,0,.1-.06.12l-1.88.65s-.02,0-.03,0Z"/><path class="cls-1" d="M2.4,8.59s-.02,0-.03,0l-1.89-.6c-.05-.02-.08-.07-.06-.12.02-.05.07-.08.12-.06l1.89.6c.05.02.08.07.06.12-.01.04-.05.07-.09.07h0Z"/><path class="cls-1" d="M4.53,5.63s-.06-.01-.08-.04l-1.16-1.61s-.02-.1.02-.13c.04-.03.1-.02.13.02l1.16,1.61s.02.1-.02.13c-.02.01-.04.02-.06.02Z"/><path class="cls-1" d="M8.01,4.53h0c-.05,0-.1-.04-.09-.1l.03-1.99c0-.05.04-.09.1-.09h0c.05,0,.1.04.09.1l-.03,1.99c0,.05-.04.09-.1.09Z"/><path class="cls-1" d="M11.45,5.73s-.04,0-.06-.02c-.04-.03-.05-.09-.02-.13l1.21-1.58s.09-.05.13-.02.05.09.02.13l-1.21,1.58s-.05.04-.08.04Z"/><path class="cls-1" d="M13.5,8.75s-.08-.03-.09-.07c-.01-.05.01-.1.07-.12l1.91-.54c.05-.01.1.01.12.07s-.01.1-.07.12l-1.91.54s-.02,0-.03,0h0Z"/><path class="cls-1" d="M15.2,13.09s-.02,0-.03,0l-1.86-.71s-.07-.07-.06-.12.07-.07.12-.06l1.86.71s.07.07.06.12c-.01.04-.05.06-.09.06h0Z"/></svg>