<?xml version="1.0" encoding="UTF-8"?><svg id="Layer_1" xmlns="http://www.w3.org/2000/svg" viewBox="0 0 235.71 172.8"><defs><style>.cls-1{fill:#f4a460;stroke-width:0px;}</style></defs><path class="cls-1" d="M128.87,71.04l-18.13,11.73,10.64,7.51,4.02,3.09c.66.5,1.04,1.26,1.04,2.08v13.23l1.46-1.03,23.57-15.26c.78-.52,1.82-.52,2.63,0l1.17.76v-4.87l-3.01-2.11-23.38-15.13Z"/><path class="cls-1" d="M192,115.15c-1.85-39.34-34.51-70.83-73.89-71.35-41.85-.54-75.94,33.22-75.94,74.96,0,11.12,2.43,21.67,6.79,31.16.55,1.22,1.79,1.97,3.11,1.97h2.09v-56.43c0-.82.38-1.58,1.04-2.08l3.96-3.05,29.62-20.92c.93-.64,2.11-.64,3.02-.01l16.63,11.75,19.12-12.37c.81-.52,1.84-.52,2.64,0l23.53,15.23,3.2,2.24c.62.46.97,1.14.97,1.85v6.76l19.73,12.77,3.21,2.26c.59.38.96,1.08.96,1.83v40.17h.39c1.33,0,2.56-.75,3.12-1.97,4.82-10.51,7.29-22.33,6.69-34.77Z"/><path class="cls-1" d="M152.78,94.67l-23.41,15.16-2.93,2.07v39.99h52.73v-39.96l-3.02-2.13-23.37-15.13ZM152.14,133.98c0,.21-.17.38-.37.38h-5.75c-.21,0-.38-.17-.38-.38v-5.75c0-.21.17-.37.38-.37h5.75c.2,0,.37.16.37.37v5.75ZM152.14,126.17c0,.21-.17.38-.37.38h-5.75c-.21,0-.38-.17-.38-.38v-5.75c0-.2.17-.37.38-.37h5.75c.2,0,.37.17.37.37v5.75ZM159.94,133.98c0,.21-.17.38-.37.38h-5.75c-.21,0-.38-.17-.38-.38v-5.75c0-.21.17-.37.38-.37h5.75c.2,0,.37.16.37.37v5.75ZM159.94,126.17c0,.21-.17.38-.37.38h-5.75c-.21,0-.38-.17-.38-.38v-5.75c0-.2.17-.37.38-.37h5.75c.2,0,.37.17.37.37v5.75Z"/><path class="cls-1" d="M60.71,92.43l-3.92,3.03v56.43s67.01,0,67.01,0v-56.43l-3.99-3.05-29.52-20.85-29.58,20.89ZM89.63,121.21c0,.21-.17.37-.38.37h-5.75c-.2,0-.37-.16-.37-.37v-5.75c0-.21.17-.38.37-.38h5.75c.21,0,.38.17.38.38v5.75ZM89.63,113.4c0,.21-.17.37-.38.37h-5.75c-.2,0-.37-.16-.37-.37v-5.75c0-.21.17-.38.37-.38h5.75c.21,0,.38.17.38.38v5.75ZM90.93,107.65c0-.21.17-.38.37-.38h5.75c.21,0,.38.17.38.38v5.75c0,.21-.17.37-.38.37h-5.75c-.2,0-.37-.16-.37-.37v-5.75ZM90.93,115.46c0-.21.17-.38.37-.38h5.75c.21,0,.38.17.38.38v5.75c0,.21-.17.37-.38.37h-5.75c-.2,0-.37-.16-.37-.37v-5.75Z"/><path class="cls-1" d="M15.97,155.27c-.54,0-1.05-.34-1.24-.88-.24-.68.12-1.43.81-1.67l25.82-8.98c.69-.24,1.43.12,1.67.81.24.68-.12,1.43-.81,1.67l-25.82,8.98c-.14.05-.29.07-.43.07Z"/><path class="cls-1" d="M41.05,96.11c-.13,0-.26-.02-.39-.06l-26.08-8.22c-.69-.22-1.08-.96-.86-1.65.22-.69.96-1.07,1.65-.86l26.08,8.22c.69.22,1.08.96.86,1.65-.18.56-.69.92-1.25.92Z"/><path class="cls-1" d="M70.41,55.42c-.41,0-.81-.19-1.07-.54l-16.01-22.16c-.42-.59-.29-1.41.3-1.83.59-.42,1.41-.29,1.83.29l16.01,22.16c.42.59.29,1.41-.3,1.83-.23.17-.5.25-.77.25Z"/><path class="cls-1" d="M118.27,40.32h-.02c-.72-.01-1.3-.61-1.29-1.33l.39-27.34c.01-.72.6-1.29,1.31-1.29h.02c.72.01,1.3.61,1.29,1.33l-.39,27.34c-.01.72-.6,1.29-1.31,1.29Z"/><path class="cls-1" d="M165.67,56.79c-.28,0-.56-.09-.8-.27-.58-.44-.68-1.27-.24-1.84l16.64-21.7c.44-.58,1.27-.68,1.84-.24.58.44.68,1.27.24,1.84l-16.64,21.7c-.26.34-.65.51-1.04.51Z"/><path class="cls-1" d="M193.86,98.3c-.57,0-1.1-.38-1.26-.95-.2-.7.21-1.42.9-1.62l26.3-7.47c.7-.2,1.42.21,1.62.9.2.7-.21,1.42-.9,1.62l-26.3,7.47c-.12.03-.24.05-.36.05Z"/><path class="cls-1" d="M217.24,158.15c-.16,0-.31-.03-.47-.09l-25.56-9.72c-.68-.26-1.02-1.02-.76-1.69s1.01-1.02,1.69-.76l25.56,9.72c.68.26,1.02,1.02.76,1.69-.2.52-.7.85-1.23.85Z"/></svg>