<?xml version="1.0" encoding="UTF-8"?><svg id="Layer_1" xmlns="http://www.w3.org/2000/svg" viewBox="0 0 531.03 326.15"><defs><style>.cls-1{fill:#2b2828;}.cls-1,.cls-2{stroke-width:0px;}.cls-2{fill:#f4a460;}</style></defs><path class="cls-2" d="M281.02,101.4l-26.74,17.3,15.69,11.08,5.93,4.56c.97.74,1.53,1.86,1.53,3.06v19.51l2.16-1.52,34.76-22.5c1.15-.77,2.68-.77,3.88,0l1.73,1.12v-7.18l-4.44-3.11-34.48-22.32Z"/><path class="cls-2" d="M374.13,166.45c-2.73-58.02-50.9-104.47-108.98-105.23-61.72-.79-112,49-112,110.55,0,16.4,3.58,31.97,10.01,45.96.81,1.8,2.63,2.9,4.59,2.9h3.08v-83.23c0-1.21.56-2.33,1.54-3.07l5.84-4.5,43.69-30.85c1.37-.94,3.11-.94,4.46-.02l24.53,17.33,28.2-18.25c1.19-.76,2.72-.76,3.9,0l34.7,22.46,4.73,3.31c.91.67,1.42,1.68,1.42,2.73v9.97l29.1,18.84,4.73,3.34c.87.56,1.42,1.59,1.42,2.7v59.25h.58c1.96,0,3.78-1.1,4.61-2.9,7.11-15.51,10.75-32.93,9.87-51.29Z"/><path class="cls-2" d="M316.28,136.25l-34.53,22.36-4.33,3.05v58.98h77.77v-58.94l-4.45-3.13-34.47-22.31ZM315.35,194.23c0,.31-.25.56-.54.56h-8.48c-.31,0-.56-.25-.56-.56v-8.48c0-.31.25-.54.56-.54h8.48c.29,0,.54.23.54.54v8.48ZM315.35,182.71c0,.31-.25.56-.54.56h-8.48c-.31,0-.56-.25-.56-.56v-8.48c0-.29.25-.54.56-.54h8.48c.29,0,.54.25.54.54v8.48ZM326.85,194.23c0,.31-.25.56-.54.56h-8.48c-.31,0-.56-.25-.56-.56v-8.48c0-.31.25-.54.56-.54h8.48c.29,0,.54.23.54.54v8.48ZM326.85,182.71c0,.31-.25.56-.54.56h-8.48c-.31,0-.56-.25-.56-.56v-8.48c0-.29.25-.54.56-.54h8.48c.29,0,.54.25.54.54v8.48Z"/><path class="cls-2" d="M180.49,132.95l-5.78,4.46-.02,83.23h98.86v-83.23l-5.88-4.51-43.54-30.76-43.63,30.81ZM223.15,175.4c0,.31-.25.54-.56.54h-8.48c-.29,0-.54-.23-.54-.54v-8.48c0-.31.25-.56.54-.56h8.48c.31,0,.56.25.56.56v8.48ZM223.15,163.88c0,.31-.25.54-.56.54h-8.48c-.29,0-.54-.23-.54-.54v-8.48c0-.31.25-.56.54-.56h8.48c.31,0,.56.25.56.56v8.48ZM225.07,155.4c0-.31.25-.56.54-.56h8.48c.31,0,.56.25.56.56v8.48c0,.31-.25.54-.56.54h-8.48c-.29,0-.54-.23-.54-.54v-8.48ZM225.07,166.92c0-.31.25-.56.54-.56h8.48c.31,0,.56.25.56.56v8.48c0,.31-.25.54-.56.54h-8.48c-.29,0-.54-.23-.54-.54v-8.48Z"/><path class="cls-2" d="M114.49,225.63c-.8,0-1.55-.5-1.83-1.3-.35-1.01.18-2.11,1.19-2.46l38.09-13.25c1.01-.35,2.11.18,2.46,1.19.35,1.01-.18,2.11-1.19,2.46l-38.09,13.25c-.21.07-.43.11-.64.11Z"/><path class="cls-2" d="M151.49,138.38c-.19,0-.39-.03-.58-.09l-38.46-12.12c-1.02-.32-1.59-1.41-1.26-2.43.32-1.02,1.41-1.58,2.43-1.26l38.46,12.12c1.02.32,1.59,1.41,1.26,2.43-.26.83-1.02,1.35-1.85,1.35Z"/><path class="cls-2" d="M194.8,78.36c-.6,0-1.19-.28-1.57-.8l-23.62-32.69c-.63-.87-.43-2.08.44-2.7.87-.63,2.08-.43,2.7.43l23.62,32.69c.63.87.43,2.08-.44,2.7-.34.25-.74.37-1.13.37Z"/><path class="cls-2" d="M265.38,56.09h-.03c-1.07-.02-1.92-.89-1.91-1.96l.58-40.32c.02-1.06.88-1.91,1.94-1.91h.03c1.07.02,1.92.89,1.91,1.96l-.58,40.32c-.02,1.06-.88,1.91-1.94,1.91Z"/><path class="cls-2" d="M335.29,80.37c-.41,0-.83-.13-1.18-.4-.85-.65-1.01-1.87-.36-2.72l24.54-32c.65-.85,1.87-1.01,2.71-.36.85.65,1.01,1.87.36,2.72l-24.54,32c-.38.5-.96.76-1.54.76Z"/><path class="cls-2" d="M376.87,141.6c-.84,0-1.62-.56-1.86-1.41-.29-1.03.31-2.1,1.33-2.39l38.79-11.01c1.03-.29,2.1.31,2.39,1.33.29,1.03-.31,2.1-1.33,2.39l-38.79,11.01c-.18.05-.35.07-.53.07Z"/><path class="cls-2" d="M411.35,229.87c-.23,0-.46-.04-.69-.13l-37.69-14.33c-1-.38-1.5-1.5-1.12-2.5s1.5-1.5,2.5-1.12l37.69,14.33c1,.38,1.5,1.5,1.12,2.5-.29.77-1.03,1.25-1.81,1.25Z"/><path class="cls-1" d="M50.94,268.43c0,1.49-.38,2.79-1.14,3.9-.76,1.11-1.78,1.98-3.07,2.6-1.29.62-2.7.93-4.25.93h-13.69v-28.85h14.34c1.36,0,2.53.36,3.52,1.08s1.75,1.64,2.28,2.76c.53,1.12.79,2.3.79,3.51,0,1.41-.36,2.73-1.08,3.96-.72,1.23-1.74,2.15-3.07,2.74,1.65.49,2.96,1.39,3.92,2.7.96,1.31,1.44,2.86,1.44,4.65ZM32.46,250.19v9.63h9.18c.87,0,1.63-.22,2.3-.65.66-.43,1.19-1.02,1.58-1.75s.59-1.53.59-2.4c0-.92-.18-1.74-.55-2.46-.36-.72-.87-1.29-1.5-1.73-.63-.43-1.36-.65-2.17-.65h-9.43ZM47.25,267.78c0-.89-.2-1.72-.59-2.48-.39-.76-.92-1.37-1.59-1.83-.66-.46-1.43-.69-2.3-.69h-10.32v9.91h10.04c.89,0,1.7-.23,2.42-.69.72-.46,1.29-1.06,1.71-1.81s.63-1.55.63-2.42Z"/><path class="cls-1" d="M56.06,275.87v-28.85h12.35c1.27,0,2.44.26,3.5.79,1.06.53,1.98,1.23,2.76,2.11.79.88,1.4,1.87,1.83,2.97s.65,2.21.65,3.35c0,1.33-.25,2.59-.75,3.78-.5,1.19-1.21,2.21-2.11,3.05-.91.84-1.97,1.42-3.19,1.75l6.99,11.05h-4.15l-6.58-10.36h-7.64v10.36h-3.66ZM59.72,262.26h8.74c1,0,1.88-.28,2.62-.83s1.33-1.29,1.75-2.21c.42-.92.63-1.91.63-2.97s-.24-2.08-.73-2.99c-.49-.91-1.13-1.63-1.91-2.17-.79-.54-1.65-.81-2.6-.81h-8.49v11.99Z"/><path class="cls-1" d="M82.76,275.87v-28.85h3.66v28.85h-3.66Z"/><path class="cls-1" d="M104.9,276.07c-1.9,0-3.66-.41-5.3-1.24-1.64-.83-3.07-1.94-4.29-3.33s-2.17-2.97-2.84-4.71c-.68-1.75-1.02-3.56-1.02-5.42s.34-3.8,1.02-5.55c.68-1.75,1.62-3.3,2.82-4.65s2.63-2.42,4.27-3.19,3.42-1.16,5.34-1.16c2.79,0,5.09.58,6.91,1.75,1.81,1.17,3.18,2.68,4.1,4.55l-2.8,1.95c-.84-1.68-1.99-2.93-3.45-3.74-1.46-.81-3.07-1.22-4.83-1.22-1.46,0-2.79.31-3.98.93-1.19.62-2.21,1.47-3.07,2.54-.85,1.07-1.5,2.28-1.95,3.64-.45,1.36-.67,2.76-.67,4.23,0,1.54.25,3,.75,4.37s1.21,2.57,2.13,3.62,1.99,1.86,3.21,2.46c1.22.6,2.53.89,3.94.89,1.65,0,3.22-.42,4.71-1.26,1.49-.84,2.9-2.13,4.23-3.86v3.78c-2.6,3.09-5.68,4.63-9.22,4.63ZM113.68,264.25h-6.22v-2.76h9.3v14.38h-3.09v-11.62Z"/><path class="cls-1" d="M145.54,247.02v28.85h-3.66v-13.12h-15.89v13.12h-3.66v-28.85h3.66v12.47h15.89v-12.47h3.66Z"/><path class="cls-1" d="M173.25,250.27h-9.95v25.6h-3.66v-25.6h-9.96v-3.25h23.57v3.25Z"/><path class="cls-1" d="M190.11,253.77v22.1h-3.66v-28.85h3.09l17.63,22.55v-22.51h3.66v28.81h-3.33l-17.39-22.1Z"/><path class="cls-1" d="M237.33,272.62v3.25h-19.59v-28.85h19.22v3.25h-15.56v9.35h13.53v3.05h-13.53v9.96h15.93Z"/><path class="cls-1" d="M242.32,275.87v-28.85h3.66v28.85h-3.66Z"/><path class="cls-1" d="M264.47,276.07c-1.9,0-3.66-.41-5.3-1.24-1.64-.83-3.07-1.94-4.29-3.33s-2.17-2.97-2.84-4.71c-.68-1.75-1.02-3.56-1.02-5.42s.34-3.8,1.02-5.55c.68-1.75,1.62-3.3,2.82-4.65s2.63-2.42,4.27-3.19,3.42-1.16,5.34-1.16c2.79,0,5.09.58,6.91,1.75,1.81,1.17,3.18,2.68,4.1,4.55l-2.8,1.95c-.84-1.68-1.99-2.93-3.45-3.74-1.46-.81-3.07-1.22-4.83-1.22-1.46,0-2.79.31-3.98.93-1.19.62-2.21,1.47-3.07,2.54-.85,1.07-1.5,2.28-1.95,3.64-.45,1.36-.67,2.76-.67,4.23,0,1.54.25,3,.75,4.37s1.21,2.57,2.13,3.62,1.99,1.86,3.21,2.46c1.22.6,2.53.89,3.94.89,1.65,0,3.22-.42,4.71-1.26,1.49-.84,2.9-2.13,4.23-3.86v3.78c-2.6,3.09-5.68,4.63-9.22,4.63ZM273.25,264.25h-6.22v-2.76h9.3v14.38h-3.09v-11.62Z"/><path class="cls-1" d="M305.1,247.02v28.85h-3.66v-13.12h-15.89v13.12h-3.66v-28.85h3.66v12.47h15.89v-12.47h3.66Z"/><path class="cls-1" d="M334.15,268.43c0,1.49-.38,2.79-1.14,3.9-.76,1.11-1.78,1.98-3.07,2.6-1.29.62-2.7.93-4.25.93h-13.69v-28.85h14.34c1.35,0,2.53.36,3.51,1.08s1.75,1.64,2.28,2.76.79,2.3.79,3.51c0,1.41-.36,2.73-1.08,3.96-.72,1.23-1.74,2.15-3.07,2.74,1.65.49,2.96,1.39,3.92,2.7.96,1.31,1.44,2.86,1.44,4.65ZM315.67,250.19v9.63h9.18c.87,0,1.63-.22,2.3-.65.66-.43,1.19-1.02,1.58-1.75s.59-1.53.59-2.4c0-.92-.18-1.74-.55-2.46-.37-.72-.87-1.29-1.5-1.73-.64-.43-1.36-.65-2.17-.65h-9.43ZM330.46,267.78c0-.89-.2-1.72-.59-2.48-.39-.76-.92-1.37-1.58-1.83-.66-.46-1.43-.69-2.3-.69h-10.32v9.91h10.04c.89,0,1.7-.23,2.42-.69.72-.46,1.29-1.06,1.71-1.81s.63-1.55.63-2.42Z"/><path class="cls-1" d="M350.98,276.07c-2.03,0-3.87-.41-5.53-1.22s-3.08-1.92-4.29-3.31-2.13-2.97-2.78-4.71-.97-3.54-.97-5.38.35-3.76,1.04-5.51,1.65-3.3,2.88-4.67c1.23-1.37,2.67-2.45,4.33-3.25,1.65-.8,3.45-1.2,5.4-1.2s3.87.42,5.53,1.26c1.65.84,3.07,1.96,4.27,3.37,1.19,1.41,2.11,2.98,2.76,4.71.65,1.73.98,3.51.98,5.32,0,1.92-.34,3.76-1.02,5.5-.68,1.75-1.63,3.31-2.87,4.67-1.23,1.37-2.67,2.44-4.33,3.23s-3.45,1.18-5.4,1.18ZM341.1,261.45c0,1.46.24,2.88.71,4.25.47,1.37,1.14,2.58,2.01,3.64.87,1.06,1.91,1.9,3.13,2.52,1.22.62,2.57.94,4.06.94s2.93-.33,4.15-.98c1.22-.65,2.25-1.52,3.11-2.6.85-1.08,1.5-2.3,1.95-3.66.45-1.35.67-2.72.67-4.1,0-1.46-.24-2.87-.71-4.23-.47-1.35-1.15-2.57-2.03-3.64-.88-1.07-1.92-1.91-3.13-2.52-1.21-.61-2.54-.91-4-.91-1.54,0-2.93.32-4.14.95-1.22.64-2.26,1.5-3.11,2.58-.85,1.08-1.51,2.3-1.97,3.64-.46,1.34-.69,2.72-.69,4.12Z"/><path class="cls-1" d="M369.67,275.87v-28.85h12.35c1.27,0,2.44.26,3.5.79,1.06.53,1.98,1.23,2.76,2.11.79.88,1.4,1.87,1.83,2.97s.65,2.21.65,3.35c0,1.33-.25,2.59-.75,3.78-.5,1.19-1.21,2.21-2.11,3.05-.91.84-1.97,1.42-3.19,1.75l6.99,11.05h-4.15l-6.58-10.36h-7.64v10.36h-3.66ZM373.32,262.26h8.74c1,0,1.88-.28,2.62-.83s1.33-1.29,1.75-2.21c.42-.92.63-1.91.63-2.97s-.24-2.08-.73-2.99c-.49-.91-1.13-1.63-1.91-2.17-.79-.54-1.65-.81-2.6-.81h-8.49v11.99Z"/><path class="cls-1" d="M419.56,247.02v28.85h-3.66v-13.12h-15.89v13.12h-3.66v-28.85h3.66v12.47h15.89v-12.47h3.66Z"/><path class="cls-1" d="M438.17,276.07c-2.03,0-3.87-.41-5.53-1.22s-3.08-1.92-4.29-3.31-2.13-2.97-2.78-4.71-.97-3.54-.97-5.38.35-3.76,1.04-5.51,1.65-3.3,2.88-4.67c1.23-1.37,2.67-2.45,4.33-3.25,1.65-.8,3.45-1.2,5.4-1.2s3.87.42,5.53,1.26c1.65.84,3.07,1.96,4.27,3.37,1.19,1.41,2.11,2.98,2.76,4.71.65,1.73.98,3.51.98,5.32,0,1.92-.34,3.76-1.02,5.5-.68,1.75-1.63,3.31-2.87,4.67-1.23,1.37-2.67,2.44-4.33,3.23s-3.45,1.18-5.4,1.18ZM428.3,261.45c0,1.46.24,2.88.71,4.25.47,1.37,1.14,2.58,2.01,3.64.87,1.06,1.91,1.9,3.13,2.52,1.22.62,2.57.94,4.06.94s2.93-.33,4.15-.98c1.22-.65,2.25-1.52,3.11-2.6.85-1.08,1.5-2.3,1.95-3.66.45-1.35.67-2.72.67-4.1,0-1.46-.24-2.87-.71-4.23-.47-1.35-1.15-2.57-2.03-3.64-.88-1.07-1.92-1.91-3.13-2.52-1.21-.61-2.54-.91-4-.91-1.54,0-2.93.32-4.14.95-1.22.64-2.26,1.5-3.11,2.58-.85,1.08-1.51,2.3-1.97,3.64-.46,1.34-.69,2.72-.69,4.12Z"/><path class="cls-1" d="M468.57,276.07c-2.03,0-3.87-.41-5.53-1.22s-3.08-1.92-4.29-3.31-2.13-2.97-2.78-4.71-.97-3.54-.97-5.38.35-3.76,1.04-5.51,1.65-3.3,2.88-4.67c1.23-1.37,2.67-2.45,4.33-3.25,1.65-.8,3.45-1.2,5.4-1.2s3.87.42,5.53,1.26c1.65.84,3.07,1.96,4.27,3.37,1.19,1.41,2.11,2.98,2.76,4.71.65,1.73.98,3.51.98,5.32,0,1.92-.34,3.76-1.02,5.5-.68,1.75-1.63,3.31-2.87,4.67-1.23,1.37-2.67,2.44-4.33,3.23s-3.45,1.18-5.4,1.18ZM458.69,261.45c0,1.46.24,2.88.71,4.25.47,1.37,1.14,2.58,2.01,3.64.87,1.06,1.91,1.9,3.13,2.52,1.22.62,2.57.94,4.06.94s2.93-.33,4.15-.98c1.22-.65,2.25-1.52,3.11-2.6.85-1.08,1.5-2.3,1.95-3.66.45-1.35.67-2.72.67-4.1,0-1.46-.24-2.87-.71-4.23-.47-1.35-1.15-2.57-2.03-3.64-.88-1.07-1.92-1.91-3.13-2.52-1.21-.61-2.54-.91-4-.91-1.54,0-2.93.32-4.14.95-1.22.64-2.26,1.5-3.11,2.58-.85,1.08-1.51,2.3-1.97,3.64-.46,1.34-.69,2.72-.69,4.12Z"/><path class="cls-1" d="M487.26,275.87v-28.85h10c3.09,0,5.67.64,7.74,1.93,2.07,1.29,3.62,3.02,4.65,5.2,1.03,2.18,1.54,4.6,1.54,7.25,0,2.93-.57,5.47-1.71,7.64s-2.75,3.85-4.83,5.04c-2.09,1.19-4.55,1.79-7.4,1.79h-10ZM507.49,261.41c0-2.17-.4-4.09-1.2-5.77s-1.96-2.99-3.47-3.94c-1.52-.95-3.37-1.42-5.57-1.42h-6.34v22.35h6.34c2.22,0,4.09-.49,5.61-1.48,1.52-.99,2.67-2.33,3.45-4.02.79-1.69,1.18-3.6,1.18-5.71Z"/><path class="cls-1" d="M26.42,294.51c0-1.19.21-2.36.62-3.5.41-1.14,1.02-2.19,1.81-3.13s1.77-1.69,2.92-2.25c1.15-.56,2.46-.84,3.93-.84,1.74,0,3.23.4,4.48,1.19,1.24.8,2.17,1.82,2.77,3.06l-1.95,1.26c-.38-.82-.88-1.48-1.47-1.96-.59-.48-1.24-.83-1.92-1.03-.69-.2-1.36-.3-2.02-.3-1.08,0-2.04.22-2.87.66-.83.44-1.53,1.03-2.1,1.76-.57.73-.99,1.55-1.28,2.46-.28.91-.43,1.82-.43,2.73,0,1.01.17,1.98.51,2.91.34.93.81,1.76,1.41,2.47.6.71,1.32,1.28,2.14,1.7.82.42,1.72.63,2.69.63.68,0,1.37-.12,2.08-.36.71-.24,1.38-.61,2.01-1.11s1.12-1.16,1.48-1.96l2.06,1.13c-.4.97-1.03,1.79-1.87,2.47-.84.68-1.78,1.19-2.81,1.54-1.04.35-2.05.52-3.06.52-1.34,0-2.56-.29-3.68-.86-1.12-.58-2.08-1.35-2.9-2.31-.81-.96-1.45-2.04-1.89-3.24-.45-1.2-.67-2.41-.67-3.64Z"/><path class="cls-1" d="M52.28,304.7c-1.08,0-2.06-.2-2.94-.59s-1.64-.93-2.28-1.61c-.64-.68-1.13-1.47-1.48-2.36-.35-.89-.52-1.83-.52-2.81s.17-1.94.52-2.83c.35-.89.84-1.68,1.48-2.36.64-.68,1.4-1.22,2.29-1.61.89-.39,1.87-.59,2.95-.59s2.03.2,2.91.59c.88.39,1.64.93,2.29,1.61.65.68,1.15,1.47,1.5,2.36.35.89.52,1.84.52,2.83s-.17,1.92-.52,2.81c-.35.89-.84,1.68-1.48,2.36-.64.68-1.4,1.22-2.29,1.61s-1.87.59-2.95.59ZM47.53,297.37c0,.98.21,1.87.64,2.66.43.8,1,1.43,1.72,1.89.71.46,1.51.69,2.39.69s1.68-.23,2.4-.71c.72-.47,1.3-1.11,1.73-1.92.43-.81.65-1.7.65-2.68s-.22-1.87-.65-2.66-1.01-1.43-1.73-1.9-1.52-.71-2.4-.71-1.67.24-2.39.72c-.71.48-1.29,1.12-1.72,1.92s-.64,1.69-.64,2.69Z"/><path class="cls-1" d="M84.07,304.42h-2.42v-7.95c0-1.49-.24-2.58-.73-3.29-.49-.71-1.2-1.06-2.16-1.06s-1.85.35-2.64,1.05-1.34,1.6-1.67,2.71v8.54h-2.42v-7.95c0-1.51-.24-2.61-.71-3.31s-1.19-1.05-2.14-1.05-1.83.34-2.62,1.02c-.8.68-1.36,1.58-1.69,2.7v8.58h-2.42v-14.25h2.2v3.08c.59-1.05,1.34-1.87,2.28-2.44.93-.57,1.99-.86,3.16-.86s2.14.32,2.86.97c.71.64,1.15,1.48,1.32,2.49.64-1.13,1.42-1.99,2.33-2.57.91-.59,1.96-.89,3.13-.89.82,0,1.51.15,2.07.45.56.3,1,.72,1.33,1.25.33.54.57,1.17.71,1.89.15.73.22,1.52.22,2.37v8.5Z"/><path class="cls-1" d="M109.44,304.42h-2.42v-7.95c0-1.49-.24-2.58-.73-3.29-.49-.71-1.2-1.06-2.16-1.06s-1.85.35-2.64,1.05-1.34,1.6-1.67,2.71v8.54h-2.42v-7.95c0-1.51-.24-2.61-.71-3.31s-1.19-1.05-2.14-1.05-1.83.34-2.62,1.02c-.8.68-1.36,1.58-1.69,2.7v8.58h-2.42v-14.25h2.2v3.08c.59-1.05,1.34-1.87,2.28-2.44.93-.57,1.99-.86,3.16-.86s2.14.32,2.86.97c.71.64,1.15,1.48,1.32,2.49.64-1.13,1.42-1.99,2.33-2.57.91-.59,1.96-.89,3.13-.89.82,0,1.51.15,2.07.45.56.3,1,.72,1.33,1.25.33.54.57,1.17.71,1.89.15.73.22,1.52.22,2.37v8.5Z"/><path class="cls-1" d="M113.06,298.72v-8.54h2.42v8.07c0,1.46.26,2.55.77,3.27.51.73,1.27,1.09,2.28,1.09.66,0,1.29-.14,1.91-.42.61-.28,1.17-.68,1.66-1.21.49-.53.88-1.15,1.15-1.88v-8.93h2.42v11.51c0,.29.06.5.18.64s.32.21.59.23v1.87c-.27.04-.49.06-.65.07-.16,0-.31.01-.45.01-.46,0-.85-.14-1.18-.42-.33-.28-.5-.63-.52-1.05l-.06-1.66c-.62,1.06-1.46,1.87-2.51,2.46-1.05.58-2.2.87-3.45.87-1.5,0-2.64-.51-3.4-1.52-.77-1.01-1.15-2.5-1.15-4.46Z"/><path class="cls-1" d="M142.14,304.42h-2.42v-7.95c0-1.51-.23-2.61-.7-3.31s-1.18-1.05-2.13-1.05c-.66,0-1.31.16-1.96.49-.65.32-1.23.76-1.73,1.32-.5.55-.87,1.19-1.09,1.91v8.58h-2.42v-14.25h2.2v3.08c.38-.67.88-1.25,1.48-1.74.6-.49,1.29-.87,2.06-1.14s1.57-.41,2.42-.41,1.51.15,2.07.45c.56.3,1,.72,1.32,1.25.32.54.55,1.17.69,1.89.14.73.21,1.52.21,2.37v8.5Z"/><path class="cls-1" d="M145.9,287.4v-3.02h2.42v3.02h-2.42ZM145.9,304.42v-14.33h2.42v14.33h-2.42Z"/><path class="cls-1" d="M159.63,303.79c-.2.09-.48.21-.82.36-.35.15-.75.27-1.21.38-.46.11-.94.17-1.46.17-.59,0-1.13-.11-1.62-.32s-.89-.54-1.18-.99-.44-1.01-.44-1.69v-9.64h-1.95v-1.89h1.95v-4.78h2.42v4.78h3.21v1.89h-3.21v8.89c.04.51.21.89.52,1.14.31.25.68.37,1.1.37.48,0,.91-.08,1.32-.25.4-.17.67-.28.8-.36l.58,1.92Z"/><path class="cls-1" d="M162.54,308.32c.24.02.48.04.71.07.24.03.42.04.55.04.29,0,.55-.1.77-.3.22-.2.46-.59.73-1.16.26-.57.61-1.41,1.03-2.52l-6.07-14.27h2.55l4.83,11.84,4.36-11.84h2.39l-6.97,18.02c-.17.42-.41.82-.73,1.19-.32.37-.73.67-1.22.89s-1.09.33-1.78.33c-.16,0-.33,0-.51-.03-.17-.02-.39-.05-.65-.11v-2.14Z"/><path class="cls-1" d="M183.43,304.42v-19.49h6.75c2.09,0,3.83.44,5.23,1.3,1.4.87,2.45,2.04,3.14,3.51.69,1.47,1.04,3.11,1.04,4.9,0,1.98-.38,3.7-1.15,5.16-.77,1.46-1.86,2.6-3.27,3.41-1.41.81-3.07,1.21-5,1.21h-6.75ZM197.1,294.65c0-1.46-.27-2.76-.81-3.9-.54-1.13-1.32-2.02-2.35-2.66-1.03-.64-2.28-.96-3.76-.96h-4.28v15.1h4.28c1.5,0,2.76-.33,3.79-1s1.8-1.57,2.33-2.72c.53-1.14.8-2.43.8-3.86Z"/><path class="cls-1" d="M209.04,304.7c-1.08,0-2.06-.2-2.95-.59s-1.66-.93-2.31-1.61c-.65-.68-1.15-1.47-1.51-2.36-.36-.89-.54-1.83-.54-2.83,0-1.34.31-2.57.93-3.68.62-1.11,1.49-2,2.59-2.67s2.38-1.01,3.8-1.01,2.7.34,3.78,1.02c1.07.68,1.9,1.57,2.5,2.67.6,1.1.89,2.29.89,3.56,0,.18,0,.36-.01.53,0,.17-.02.3-.04.4h-11.89c.07.92.33,1.74.78,2.46s1.03,1.28,1.74,1.68c.71.41,1.48.61,2.31.61.88,0,1.71-.22,2.48-.66.78-.44,1.31-1.02,1.61-1.73l2.09.58c-.31.7-.77,1.32-1.39,1.87s-1.34.98-2.17,1.29c-.83.31-1.73.47-2.7.47ZM204.21,296.46h9.77c-.07-.92-.34-1.74-.8-2.44-.46-.71-1.04-1.26-1.76-1.66-.71-.4-1.5-.6-2.36-.6s-1.62.2-2.33.6c-.71.4-1.3.95-1.74,1.66s-.71,1.52-.78,2.44Z"/><path class="cls-1" d="M222.66,304.42l-5.63-14.25h2.53l4.5,11.96,4.5-11.96h2.36l-5.63,14.25h-2.64Z"/><path class="cls-1" d="M239.19,304.7c-1.08,0-2.06-.2-2.95-.59s-1.66-.93-2.31-1.61c-.65-.68-1.15-1.47-1.51-2.36-.36-.89-.54-1.83-.54-2.83,0-1.34.31-2.57.93-3.68.62-1.11,1.49-2,2.59-2.67s2.38-1.01,3.8-1.01,2.7.34,3.78,1.02c1.07.68,1.9,1.57,2.5,2.67.6,1.1.89,2.29.89,3.56,0,.18,0,.36-.01.53,0,.17-.02.3-.04.4h-11.89c.07.92.33,1.74.78,2.46s1.03,1.28,1.74,1.68c.71.41,1.48.61,2.31.61.88,0,1.71-.22,2.48-.66.78-.44,1.31-1.02,1.61-1.73l2.09.58c-.31.7-.77,1.32-1.39,1.87s-1.34.98-2.17,1.29c-.83.31-1.73.47-2.7.47ZM234.36,296.46h9.77c-.07-.92-.34-1.74-.8-2.44-.46-.71-1.04-1.26-1.76-1.66-.71-.4-1.5-.6-2.36-.6s-1.62.2-2.33.6c-.71.4-1.3.95-1.74,1.66s-.71,1.52-.78,2.44Z"/><path class="cls-1" d="M249.13,284.38h2.42v16.41c0,.79.11,1.28.33,1.46.22.18.48.28.8.28.39,0,.75-.04,1.1-.12.35-.08.64-.17.88-.26l.39,1.98c-.4.17-.88.3-1.43.41-.55.11-1.03.17-1.46.17-.93,0-1.67-.27-2.21-.8-.54-.53-.81-1.28-.81-2.23v-17.28Z"/><path class="cls-1" d="M263.18,304.7c-1.08,0-2.06-.2-2.94-.59s-1.64-.93-2.28-1.61c-.64-.68-1.13-1.47-1.48-2.36-.35-.89-.52-1.83-.52-2.81s.17-1.94.52-2.83c.35-.89.84-1.68,1.48-2.36.64-.68,1.4-1.22,2.29-1.61.89-.39,1.87-.59,2.95-.59s2.03.2,2.91.59c.88.39,1.64.93,2.29,1.61.65.68,1.15,1.47,1.5,2.36.35.89.52,1.84.52,2.83s-.17,1.92-.52,2.81c-.35.89-.84,1.68-1.48,2.36-.64.68-1.4,1.22-2.29,1.61s-1.87.59-2.95.59ZM258.43,297.37c0,.98.21,1.87.64,2.66.43.8,1,1.43,1.72,1.89.71.46,1.51.69,2.39.69s1.68-.23,2.4-.71c.72-.47,1.3-1.11,1.73-1.92.43-.81.65-1.7.65-2.68s-.22-1.87-.65-2.66-1.01-1.43-1.73-1.9-1.52-.71-2.4-.71-1.67.24-2.39.72c-.71.48-1.29,1.12-1.72,1.92s-.64,1.69-.64,2.69Z"/><path class="cls-1" d="M281.08,304.7c-1.17,0-2.21-.29-3.13-.87-.92-.58-1.64-1.32-2.17-2.21v8.65h-2.42v-20.1h2.14v2.7c.57-.87,1.31-1.58,2.22-2.11.91-.54,1.91-.8,2.99-.8.99,0,1.9.2,2.72.6s1.54.94,2.14,1.63c.6.69,1.07,1.48,1.41,2.36.34.88.51,1.8.51,2.77,0,1.34-.27,2.58-.81,3.71-.54,1.13-1.29,2.02-2.27,2.68-.97.66-2.09.99-3.35.99ZM280.34,302.61c.71,0,1.36-.15,1.94-.45.58-.3,1.07-.7,1.48-1.19.41-.5.73-1.06.95-1.7.22-.63.33-1.29.33-1.96,0-.71-.12-1.38-.37-2.01s-.6-1.2-1.04-1.68-.97-.87-1.56-1.16c-.6-.28-1.24-.42-1.94-.42-.44,0-.89.08-1.36.24s-.91.39-1.33.69c-.42.3-.78.64-1.07,1.02-.29.38-.48.79-.58,1.22v4.06c.27.62.64,1.18,1.1,1.68.46.51.99.91,1.59,1.21.6.3,1.23.45,1.87.45Z"/><path class="cls-1" d="M312.08,304.42h-2.42v-7.95c0-1.49-.24-2.58-.73-3.29-.49-.71-1.2-1.06-2.16-1.06s-1.85.35-2.64,1.05-1.34,1.6-1.67,2.71v8.54h-2.42v-7.95c0-1.51-.24-2.61-.71-3.31s-1.19-1.05-2.14-1.05-1.83.34-2.62,1.02c-.8.68-1.36,1.58-1.69,2.7v8.58h-2.42v-14.25h2.2v3.08c.59-1.05,1.34-1.87,2.28-2.44.93-.57,1.99-.86,3.16-.86s2.14.32,2.86.97c.71.64,1.15,1.48,1.32,2.49.64-1.13,1.42-1.99,2.33-2.57.91-.59,1.96-.89,3.13-.89.82,0,1.51.15,2.07.45.56.3,1,.72,1.33,1.25.33.54.57,1.17.71,1.89.15.73.22,1.52.22,2.37v8.5Z"/><path class="cls-1" d="M322.18,304.7c-1.08,0-2.06-.2-2.95-.59s-1.66-.93-2.31-1.61c-.65-.68-1.15-1.47-1.51-2.36-.36-.89-.54-1.83-.54-2.83,0-1.34.31-2.57.93-3.68.62-1.11,1.49-2,2.59-2.67s2.38-1.01,3.8-1.01,2.7.34,3.78,1.02c1.07.68,1.9,1.57,2.5,2.67.6,1.1.89,2.29.89,3.56,0,.18,0,.36-.01.53,0,.17-.02.3-.04.4h-11.89c.07.92.33,1.74.78,2.46s1.03,1.28,1.74,1.68c.71.41,1.48.61,2.31.61.88,0,1.71-.22,2.48-.66.78-.44,1.31-1.02,1.61-1.73l2.09.58c-.31.7-.77,1.32-1.39,1.87s-1.34.98-2.17,1.29c-.83.31-1.73.47-2.7.47ZM317.35,296.46h9.77c-.07-.92-.34-1.74-.8-2.44-.46-.71-1.04-1.26-1.76-1.66-.71-.4-1.5-.6-2.36-.6s-1.62.2-2.33.6c-.71.4-1.3.95-1.74,1.66s-.71,1.52-.78,2.44Z"/><path class="cls-1" d="M344.5,304.42h-2.42v-7.95c0-1.51-.23-2.61-.7-3.31s-1.18-1.05-2.13-1.05c-.66,0-1.31.16-1.96.49-.65.32-1.23.76-1.73,1.32-.5.55-.87,1.19-1.09,1.91v8.58h-2.42v-14.25h2.2v3.08c.38-.67.88-1.25,1.48-1.74.6-.49,1.29-.87,2.06-1.14s1.57-.41,2.42-.41,1.51.15,2.07.45c.56.3,1,.72,1.32,1.25.32.54.55,1.17.69,1.89.14.73.21,1.52.21,2.37v8.5Z"/><path class="cls-1" d="M355.54,303.79c-.2.09-.48.21-.82.36-.35.15-.75.27-1.21.38-.46.11-.94.17-1.46.17-.59,0-1.13-.11-1.62-.32s-.89-.54-1.18-.99-.44-1.01-.44-1.69v-9.64h-1.95v-1.89h1.95v-4.78h2.42v4.78h3.21v1.89h-3.21v8.89c.04.51.21.89.52,1.14.31.25.68.37,1.1.37.48,0,.91-.08,1.32-.25.4-.17.67-.28.8-.36l.58,1.92Z"/><path class="cls-1" d="M363.86,294.51c0-1.19.21-2.36.62-3.5.41-1.14,1.02-2.19,1.81-3.13s1.77-1.69,2.92-2.25c1.15-.56,2.46-.84,3.93-.84,1.74,0,3.23.4,4.48,1.19,1.24.8,2.17,1.82,2.77,3.06l-1.95,1.26c-.38-.82-.87-1.48-1.47-1.96-.59-.48-1.24-.83-1.92-1.03-.69-.2-1.36-.3-2.02-.3-1.08,0-2.04.22-2.87.66-.83.44-1.53,1.03-2.1,1.76-.57.73-.99,1.55-1.28,2.46-.28.91-.43,1.82-.43,2.73,0,1.01.17,1.98.51,2.91.34.93.81,1.76,1.41,2.47.6.71,1.32,1.28,2.14,1.7.82.42,1.72.63,2.69.63.68,0,1.37-.12,2.09-.36.71-.24,1.38-.61,2-1.11s1.12-1.16,1.48-1.96l2.06,1.13c-.4.97-1.03,1.79-1.87,2.47-.84.68-1.78,1.19-2.81,1.54-1.03.35-2.05.52-3.06.52-1.34,0-2.56-.29-3.68-.86-1.12-.58-2.08-1.35-2.9-2.31-.82-.96-1.45-2.04-1.89-3.24-.45-1.2-.67-2.41-.67-3.64Z"/><path class="cls-1" d="M389.72,304.7c-1.08,0-2.06-.2-2.94-.59s-1.64-.93-2.28-1.61c-.64-.68-1.13-1.47-1.48-2.36-.35-.89-.52-1.83-.52-2.81s.17-1.94.52-2.83c.35-.89.84-1.68,1.48-2.36.64-.68,1.4-1.22,2.29-1.61.89-.39,1.87-.59,2.95-.59s2.03.2,2.91.59c.88.39,1.64.93,2.29,1.61.65.68,1.15,1.47,1.5,2.36.35.89.52,1.84.52,2.83s-.17,1.92-.52,2.81c-.35.89-.84,1.68-1.48,2.36-.64.68-1.4,1.22-2.29,1.61s-1.87.59-2.95.59ZM384.97,297.37c0,.98.21,1.87.64,2.66.43.8,1,1.43,1.72,1.89.71.46,1.51.69,2.39.69s1.68-.23,2.4-.71c.72-.47,1.3-1.11,1.73-1.92.43-.81.65-1.7.65-2.68s-.22-1.87-.65-2.66-1.01-1.43-1.73-1.9-1.52-.71-2.4-.71-1.67.24-2.39.72c-.71.48-1.29,1.12-1.72,1.92s-.64,1.69-.64,2.69Z"/><path class="cls-1" d="M407.48,292.21c-1.21.02-2.27.32-3.2.92-.92.59-1.58,1.41-1.96,2.46v8.84h-2.42v-14.25h2.25v3.24c.49-.99,1.15-1.79,1.96-2.4.81-.61,1.67-.96,2.57-1.03h.47c.13,0,.24,0,.33.03v2.2Z"/><path class="cls-1" d="M417.59,304.7c-1.17,0-2.21-.29-3.13-.87-.92-.58-1.64-1.32-2.17-2.21v8.65h-2.42v-20.1h2.14v2.7c.57-.87,1.31-1.58,2.22-2.11.91-.54,1.91-.8,2.99-.8.99,0,1.9.2,2.72.6s1.54.94,2.14,1.63c.6.69,1.07,1.48,1.41,2.36.34.88.51,1.8.51,2.77,0,1.34-.27,2.58-.81,3.71-.54,1.13-1.29,2.02-2.27,2.68-.97.66-2.09.99-3.35.99ZM416.85,302.61c.71,0,1.36-.15,1.94-.45.58-.3,1.07-.7,1.48-1.19.41-.5.73-1.06.95-1.7.22-.63.33-1.29.33-1.96,0-.71-.12-1.38-.37-2.01s-.6-1.2-1.04-1.68-.97-.87-1.56-1.16c-.6-.28-1.24-.42-1.94-.42-.44,0-.89.08-1.36.24s-.91.39-1.33.69c-.42.3-.78.64-1.07,1.02-.29.38-.48.79-.58,1.22v4.06c.27.62.64,1.18,1.1,1.68.46.51.99.91,1.59,1.21.6.3,1.23.45,1.87.45Z"/><path class="cls-1" d="M433.24,304.7c-1.08,0-2.06-.2-2.94-.59s-1.64-.93-2.28-1.61c-.64-.68-1.13-1.47-1.48-2.36-.35-.89-.52-1.83-.52-2.81s.17-1.94.52-2.83c.35-.89.84-1.68,1.48-2.36.64-.68,1.4-1.22,2.29-1.61.89-.39,1.87-.59,2.95-.59s2.03.2,2.91.59c.88.39,1.64.93,2.29,1.61.65.68,1.15,1.47,1.5,2.36.35.89.52,1.84.52,2.83s-.17,1.92-.52,2.81c-.35.89-.84,1.68-1.48,2.36-.64.68-1.4,1.22-2.29,1.61s-1.87.59-2.95.59ZM428.49,297.37c0,.98.21,1.87.64,2.66.43.8,1,1.43,1.72,1.89.71.46,1.51.69,2.39.69s1.68-.23,2.4-.71c.72-.47,1.3-1.11,1.73-1.92.43-.81.65-1.7.65-2.68s-.22-1.87-.65-2.66-1.01-1.43-1.73-1.9-1.52-.71-2.4-.71-1.67.24-2.39.72c-.71.48-1.29,1.12-1.72,1.92s-.64,1.69-.64,2.69Z"/><path class="cls-1" d="M451,292.21c-1.21.02-2.27.32-3.2.92-.92.59-1.58,1.41-1.96,2.46v8.84h-2.42v-14.25h2.25v3.24c.49-.99,1.15-1.79,1.96-2.4.81-.61,1.67-.96,2.57-1.03h.47c.13,0,.24,0,.33.03v2.2Z"/><path class="cls-1" d="M452.26,300.31c0-.91.26-1.7.78-2.36.52-.66,1.24-1.18,2.15-1.54.91-.36,1.98-.55,3.19-.55.64,0,1.32.05,2.03.15.71.1,1.35.25,1.9.45v-1.04c0-1.08-.33-1.94-.99-2.56s-1.59-.93-2.8-.93c-.79,0-1.54.14-2.27.43-.72.28-1.49.69-2.29,1.22l-.88-1.7c.93-.64,1.87-1.12,2.8-1.44.93-.32,1.9-.48,2.91-.48,1.83,0,3.28.5,4.34,1.51,1.06,1.01,1.59,2.41,1.59,4.2v6.02c0,.29.06.5.18.64s.32.21.59.23v1.87c-.24.04-.44.06-.62.08s-.32.03-.43.03c-.57,0-.99-.15-1.28-.47-.28-.31-.44-.64-.48-.99l-.05-.91c-.62.81-1.44,1.43-2.44,1.87-1.01.44-2,.66-2.99.66s-1.8-.2-2.55-.59-1.34-.92-1.76-1.58c-.42-.66-.63-1.41-.63-2.22ZM461.6,301.31c.22-.25.39-.51.52-.77.13-.26.19-.48.19-.67v-1.77c-.57-.22-1.16-.39-1.78-.5-.62-.12-1.24-.18-1.84-.18-1.23,0-2.22.24-2.98.72-.76.48-1.14,1.14-1.14,1.97,0,.45.12.89.37,1.32.25.43.61.78,1.1,1.05.48.27,1.08.41,1.8.41.75,0,1.46-.15,2.14-.45.68-.3,1.22-.67,1.62-1.13Z"/><path class="cls-1" d="M475.9,303.79c-.2.09-.48.21-.82.36-.35.15-.75.27-1.21.38-.46.11-.94.17-1.46.17-.59,0-1.13-.11-1.62-.32s-.89-.54-1.18-.99-.44-1.01-.44-1.69v-9.64h-1.95v-1.89h1.95v-4.78h2.42v4.78h3.21v1.89h-3.21v8.89c.04.51.21.89.52,1.14.31.25.68.37,1.1.37.48,0,.91-.08,1.32-.25.4-.17.67-.28.8-.36l.58,1.92Z"/><path class="cls-1" d="M478.15,287.4v-3.02h2.42v3.02h-2.42ZM478.15,304.42v-14.33h2.42v14.33h-2.42Z"/><path class="cls-1" d="M490.72,304.7c-1.08,0-2.06-.2-2.94-.59s-1.64-.93-2.28-1.61c-.64-.68-1.13-1.47-1.48-2.36-.35-.89-.52-1.83-.52-2.81s.17-1.94.52-2.83c.35-.89.84-1.68,1.48-2.36.64-.68,1.4-1.22,2.29-1.61.89-.39,1.87-.59,2.95-.59s2.03.2,2.91.59c.88.39,1.64.93,2.29,1.61.65.68,1.15,1.47,1.5,2.36.35.89.52,1.84.52,2.83s-.17,1.92-.52,2.81c-.35.89-.84,1.68-1.48,2.36-.64.68-1.4,1.22-2.29,1.61s-1.87.59-2.95.59ZM485.98,297.37c0,.98.21,1.87.64,2.66.43.8,1,1.43,1.72,1.89.71.46,1.51.69,2.39.69s1.68-.23,2.4-.71c.72-.47,1.3-1.11,1.73-1.92.43-.81.65-1.7.65-2.68s-.22-1.87-.65-2.66-1.01-1.43-1.73-1.9-1.52-.71-2.4-.71-1.67.24-2.39.72c-.71.48-1.29,1.12-1.72,1.92s-.64,1.69-.64,2.69Z"/><path class="cls-1" d="M513.35,304.42h-2.42v-7.95c0-1.51-.23-2.61-.7-3.31s-1.18-1.05-2.13-1.05c-.66,0-1.31.16-1.96.49-.65.32-1.23.76-1.73,1.32-.5.55-.87,1.19-1.09,1.91v8.58h-2.42v-14.25h2.2v3.08c.38-.67.88-1.25,1.48-1.74.6-.49,1.29-.87,2.06-1.14s1.57-.41,2.42-.41,1.51.15,2.07.45c.56.3,1,.72,1.32,1.25.32.54.55,1.17.69,1.89.14.73.21,1.52.21,2.37v8.5Z"/></svg>